<svg id="Calque_1" data-name="Calque 1" xmlns="http://www.w3.org/2000/svg" viewBox="0 0 184.33 48.1"><defs><style>.cls-1{fill:#fff;}</style></defs><path class="cls-1" d="M207.82,579.73c-.84-13.8,14.55-15.22,14.55-15.22H251.1v45.58H239.72V599.67s0-.08,0-.11V579.45A3.4,3.4,0,0,0,234,577l-10.61,10.2a3.39,3.39,0,0,0,0,4.93l7.51,7c-5.27,11.13-15.24,11-15.24,11h-7.2V598.71a68.28,68.28,0,0,0,7.2,0c3.48-.22,4.75-4,4.75-4S208.67,593.54,207.82,579.73Z" transform="translate(-207.79 -563.69)"/><path class="cls-1" d="M296.51,564.7H277.64S256.48,565,256,587.52s21.67,22.75,21.67,22.75h18.87V598.9H277.64a9,9,0,0,1-8.85-5.69h19.15V581.83H268.79a9.44,9.44,0,0,1,8.85-5.76c6.75,0,18.87,0,18.87,0Z" transform="translate(-207.79 -563.69)"/><path class="cls-1" d="M300.47,564.7h30.31s10-.32,10.87,8.3c0,0,.23,4-4,7.64s-21.17,18.26-21.17,18.26h24.84v11.37H311.05s-10.81.13-10.94-8.26c0,0-.42-3.35,4.06-7.54s21.19-18.4,21.19-18.4H300.47Z" transform="translate(-207.79 -563.69)"/><path class="cls-1" d="M368.72,563.69c-23.39,2.11-23.47,24-23.47,24,2.32,24.6,23.47,24,23.47,24,23.35-.76,23.4-24,23.4-24C390.57,563.38,368.72,563.69,368.72,563.69Zm0,36.82s-11.23.29-12.46-12.77c0,0,0-11.65,12.46-12.77,0,0,11.61-.17,12.43,12.77C381.13,587.74,381.11,600.11,368.7,600.51Z" transform="translate(-207.79 -563.69)"/></svg>